<?xml version="1.0" encoding="utf-8"?>
<!-- Generator: Adobe Illustrator 28.0.0, SVG Export Plug-In . SVG Version: 6.00 Build 0)  -->
<svg version="1.1" id="Layer_1" xmlns="http://www.w3.org/2000/svg" xmlns:xlink="http://www.w3.org/1999/xlink" x="0px" y="0px"
	 viewBox="0 0 182.6383 130.0426" enable-background="new 0 0 182.6383 130.0426" xml:space="preserve">
<g>
	<g>
		<path fill="#174964" d="M79.9716,30.9987v7.585c-0.0051,0.0991-0.0051,0.1957-0.0076,0.2948
			c-0.0051,0.1169-0.0051,0.2364-0.0051,0.3533v17.018c0,2.2191-1.7971,4.0162-4.0162,4.0162c-1.1083,0-2.1123-0.4499-2.8393-1.1769
			c-0.727-0.7244-1.1769-1.731-1.1769-2.8393v-17.018c0-0.2618,0.0051-0.5211,0.0178-0.7803
			c0.0025-0.1373,0.0076-0.2745,0.0178-0.4093c0.0025-0.0712,0.0051-0.1398,0.0127-0.211c0.0051-0.1169,0.0127-0.2313,0.0254-0.3482
			c0.0076-0.1118,0.0178-0.2237,0.0305-0.3355c0.0127-0.155,0.0305-0.3101,0.0483-0.4651c0.0254-0.1983,0.0508-0.3965,0.0813-0.5923
			c0.0585-0.394,0.1296-0.7855,0.2084-1.1718c0.0127-0.0585,0.0254-0.1169,0.0407-0.178c0.0331-0.155,0.0686-0.3101,0.1068-0.4652
			c-0.0025-0.0025,0-0.0051,0-0.0076c0.0458-0.1856,0.094-0.3686,0.1423-0.5516c0.0508-0.1856,0.1017-0.3686,0.1576-0.549
			c0.0432-0.15,0.089-0.2949,0.1398-0.4423c0.0127-0.0534,0.0305-0.1042,0.0508-0.1576c0.0483-0.1474,0.0991-0.2949,0.1525-0.4423
			c0.0025-0.0152,0.0102-0.0305,0.0153-0.0457c0.1271-0.3508,0.2618-0.6939,0.4042-1.0346
			c0.0025-0.0025,0.0025-0.0051,0.0051-0.0101c0.0737-0.1729,0.15-0.3457,0.2288-0.516c0.089-0.1983,0.183-0.3966,0.2822-0.5948
			c0.0585-0.122,0.1195-0.2415,0.183-0.3609c0.0203-0.0433,0.0432-0.0864,0.0661-0.1296c0.0737-0.1373,0.1474-0.2745,0.2237-0.4093
			c0.0585-0.1067,0.1169-0.211,0.1779-0.3152c0.0686-0.122,0.1398-0.2415,0.2135-0.3584c0.0686-0.1144,0.1398-0.2288,0.211-0.3432
			c0.0737-0.1169,0.1474-0.2287,0.2237-0.3431c0.2262-0.3457,0.4626-0.6838,0.7117-1.0142c0.1042-0.1398,0.211-0.2771,0.3177-0.4143
			c0.1195-0.1525,0.2415-0.2999,0.3635-0.4499c0.0356-0.0406,0.0686-0.0839,0.1042-0.1245c0.1042-0.122,0.2059-0.2415,0.3127-0.3584
			l0.0381-0.0458c0.1347-0.15,0.272-0.3,0.4092-0.4448c0.1423-0.1525,0.2872-0.3025,0.4347-0.4499
			c0.1474-0.1474,0.2974-0.2923,0.4499-0.4347c0.1449-0.1372,0.2949-0.2745,0.4448-0.4092l0.0458-0.0381
			c0.1169-0.1068,0.2364-0.2084,0.3584-0.3127c0.0407-0.0356,0.0839-0.0686,0.1245-0.1042c0.15-0.122,0.2974-0.244,0.4499-0.3635
			c0.1373-0.1068,0.2745-0.2135,0.4143-0.3177c0.0712-0.0534,0.1423-0.1068,0.2135-0.1576
			c0.0991-0.0712,0.1983-0.1449,0.2974-0.2135c0.0508-0.0356,0.1042-0.0737,0.1576-0.1093
			c0.0991-0.0686,0.1983-0.1372,0.2999-0.2008c0.1449-0.0966,0.2898-0.1906,0.4347-0.2821c0.0915-0.0585,0.183-0.1144,0.2745-0.1703
			c0.1957-0.1195,0.394-0.2364,0.5948-0.3482c0.1245-0.0712,0.2491-0.1398,0.3762-0.2085c0.028-0.0152,0.0559-0.0305,0.0839-0.0432
			c0.1627-0.089,0.3279-0.1728,0.4957-0.2542c0.1449-0.0737,0.2923-0.1449,0.4423-0.2135c0.2262-0.1067,0.4575-0.2109,0.6863-0.3076
			c0.1703-0.0737,0.3406-0.1423,0.5135-0.211c0.0356-0.0127,0.0686-0.028,0.1017-0.0381c0.1627-0.0635,0.3279-0.1271,0.4931-0.1856
			c0.0508-0.0178,0.1017-0.0381,0.1525-0.0534c0.1474-0.0508,0.2949-0.1017,0.4423-0.15c0.0331-0.0127,0.0661-0.0229,0.0991-0.0305
			c0.1449-0.0483,0.2923-0.0941,0.4397-0.1373c0.0763-0.0229,0.15-0.0458,0.2262-0.0661c0.3559-0.1017,0.7168-0.1932,1.0803-0.2745
			c0.0432-0.0102,0.0839-0.0203,0.1245-0.0279c0.1728-0.0382,0.3457-0.0737,0.5211-0.1093
			c0.0051-0.0025,0.0102-0.0025,0.0153-0.0025c1.0244-0.1983,2.0767-0.3228,3.1469-0.3635
			C85.3452,18.5764,79.9716,24.1712,79.9716,30.9987z"/>
		<path fill="#174964" d="M62.9587,30.9987v7.585c-0.0051,0.0991-0.0051,0.1957-0.0076,0.2948
			c-0.0051,0.1169-0.0051,0.2364-0.0051,0.3533v17.018c0,2.2191-1.7971,4.0162-4.0162,4.0162c-1.1108,0-2.1123-0.4499-2.8393-1.1769
			c-0.727-0.7244-1.1769-1.731-1.1769-2.8393v-17.018c0-0.2618,0.0051-0.5211,0.0178-0.7803
			c0.0025-0.1373,0.0076-0.2745,0.0178-0.4093c0.0025-0.0712,0.0051-0.1398,0.0127-0.211c0.0051-0.1169,0.0127-0.2313,0.0254-0.3482
			c0.0076-0.1118,0.0178-0.2237,0.0305-0.3355c0.0127-0.155,0.0305-0.3101,0.0483-0.4651c0.0254-0.1983,0.0508-0.3965,0.0813-0.5923
			c0.0585-0.394,0.1296-0.7855,0.2084-1.1718c0.0127-0.0585,0.0254-0.1169,0.0407-0.178c0.033-0.155,0.0686-0.3101,0.1068-0.4652
			c-0.0025-0.0025,0-0.0051,0-0.0076c0.0458-0.1856,0.094-0.3686,0.1423-0.5516c0.0508-0.1856,0.1017-0.3686,0.1576-0.549
			c0.0432-0.15,0.089-0.2949,0.1398-0.4423c0.0127-0.0534,0.0305-0.1042,0.0508-0.1576c0.0483-0.1474,0.0991-0.2949,0.1525-0.4423
			c0.0025-0.0152,0.0102-0.0305,0.0153-0.0457c0.1271-0.3508,0.2618-0.6939,0.4042-1.0346
			c0.0025-0.0025,0.0025-0.0051,0.0051-0.0101c0.0737-0.1729,0.15-0.3457,0.2288-0.516c0.089-0.1983,0.183-0.3966,0.2822-0.5948
			c0.0585-0.122,0.1195-0.2415,0.183-0.3609c0.0203-0.0433,0.0432-0.0864,0.0661-0.1296c0.0737-0.1373,0.1474-0.2745,0.2237-0.4093
			c0.0585-0.1067,0.1169-0.211,0.1779-0.3152c0.0686-0.122,0.1398-0.2415,0.2135-0.3584c0.0686-0.1144,0.1398-0.2288,0.211-0.3432
			c0.0737-0.1169,0.1474-0.2287,0.2237-0.3431c0.2262-0.3457,0.4626-0.6838,0.7117-1.0142c0.1042-0.1398,0.211-0.2771,0.3177-0.4143
			c0.1195-0.1525,0.2415-0.2999,0.3635-0.4499c0.0356-0.0406,0.0686-0.0839,0.1042-0.1245c0.1042-0.122,0.2059-0.2415,0.3126-0.3584
			l0.0381-0.0458c0.1347-0.15,0.272-0.3,0.4092-0.4448c0.1423-0.1525,0.2872-0.3025,0.4347-0.4499
			c0.1474-0.1474,0.2974-0.2923,0.4499-0.4347c0.1449-0.1372,0.2949-0.2745,0.4448-0.4092l0.0458-0.0381
			c0.1169-0.1068,0.2364-0.2084,0.3584-0.3127c0.0407-0.0356,0.0839-0.0686,0.1246-0.1042c0.15-0.122,0.2974-0.244,0.4499-0.3635
			c0.1373-0.1068,0.2745-0.2135,0.4143-0.3177c0.0712-0.0534,0.1423-0.1068,0.2135-0.1576
			c0.0991-0.0712,0.1983-0.1449,0.2974-0.2135c0.0508-0.0356,0.1042-0.0737,0.1576-0.1093
			c0.0991-0.0686,0.1983-0.1372,0.2999-0.2008c0.1449-0.0966,0.2898-0.1906,0.4347-0.2821c0.0915-0.0585,0.183-0.1144,0.2745-0.1703
			c0.1957-0.1195,0.394-0.2364,0.5948-0.3482c0.1246-0.0712,0.2491-0.1398,0.3762-0.2085c0.028-0.0152,0.0559-0.0305,0.0839-0.0432
			c0.1627-0.089,0.3279-0.1728,0.4957-0.2542c0.1449-0.0737,0.2923-0.1449,0.4423-0.2135c0.2262-0.1067,0.4576-0.2109,0.6863-0.3076
			c0.1703-0.0737,0.3406-0.1423,0.5135-0.211c0.0356-0.0127,0.0686-0.028,0.1017-0.0381c0.1627-0.0635,0.3279-0.1271,0.4931-0.1856
			c0.0508-0.0178,0.1017-0.0381,0.1525-0.0534c0.1474-0.0508,0.2949-0.1017,0.4423-0.15c0.0331-0.0127,0.0661-0.0229,0.0991-0.0305
			c0.1449-0.0483,0.2923-0.0941,0.4397-0.1373c0.0762-0.0229,0.15-0.0458,0.2262-0.0661c0.3559-0.1017,0.7168-0.1932,1.0803-0.2745
			c0.0432-0.0102,0.0839-0.0203,0.1245-0.0279c0.1729-0.0382,0.3457-0.0737,0.5211-0.1093
			c0.0051-0.0025,0.0102-0.0025,0.0153-0.0025c1.0244-0.1983,2.0767-0.3228,3.1469-0.3635
			C68.3323,18.5764,62.9587,24.1712,62.9587,30.9987z"/>
		<path fill="#E77654" d="M131.0027,20.356v10.772c-0.7702-2.214-1.9039-4.2577-3.3248-6.0649
			c-2.4555-3.1189-5.7752-5.5261-9.5982-6.8606h10.7695C130.0385,18.2025,131.0027,19.1667,131.0027,20.356z"/>
		<g>
			<path fill="#174964" d="M109.089,18.2229c-6.7411,0.3533-12.1146,5.948-12.1146,12.7755v7.585
				c-0.0051,0.0991-0.0051,0.1957-0.0076,0.2948c-0.0051,0.1169-0.0051,0.2364-0.0051,0.3534v8.6628
				c0,0.0509-0.0025,0.1042-0.0051,0.1551c-0.0025,0.1373-0.0076,0.2745-0.0178,0.4092c-0.0025,0.0712-0.0051,0.1398-0.0127,0.211
				c-0.0051,0.1169-0.0127,0.2313-0.0254,0.3483c-0.0076,0.1118-0.0178,0.2237-0.0305,0.3355
				c-0.0127,0.1551-0.0305,0.3101-0.0483,0.4652c-0.0254,0.1983-0.0508,0.3965-0.0813,0.5923
				c-0.0585,0.394-0.1296,0.7854-0.2084,1.1718c-0.0127,0.0585-0.0254,0.1169-0.0407,0.1779
				c-0.033,0.155-0.0686,0.3101-0.1067,0.4651c0.0025,0.0025,0,0.0051,0,0.0076c-0.0457,0.1856-0.094,0.3686-0.1424,0.5516
				c-0.0508,0.1856-0.1016,0.3686-0.1576,0.5491c-0.0432,0.15-0.089,0.2948-0.1398,0.4423
				c-0.0127,0.0534-0.0305,0.1042-0.0508,0.1576c-0.0483,0.1474-0.0992,0.2949-0.1525,0.4423
				c-0.0025,0.0152-0.0102,0.0305-0.0152,0.0458c-0.1271,0.3508-0.2618,0.6939-0.4042,1.0345
				c-0.0025,0.0025-0.0025,0.0051-0.0051,0.0101c-0.0737,0.1729-0.15,0.3457-0.2288,0.516c-0.089,0.1983-0.183,0.3965-0.2821,0.5948
				c-0.0585,0.122-0.1195,0.2415-0.183,0.3609c-0.0204,0.0432-0.0432,0.0865-0.0661,0.1297
				c-0.0724,0.1367-0.1455,0.2731-0.2216,0.4077c-0.0597,0.1056-0.1176,0.2111-0.18,0.3167
				c-0.0686,0.122-0.1398,0.2415-0.2135,0.3584c-0.0686,0.1144-0.1398,0.2288-0.211,0.3432
				c-0.0737,0.1169-0.1475,0.2287-0.2237,0.3431c-0.2262,0.3457-0.4626,0.6838-0.7117,1.0142
				c-0.0966,0.1322-0.1983,0.2593-0.2974,0.3889c-0.0076,0.0076-0.0127,0.0178-0.0203,0.0254
				c-0.1195,0.1525-0.2415,0.2999-0.3635,0.4499c-0.0356,0.0406-0.0686,0.0839-0.1042,0.1245
				c-0.1042,0.122-0.2059,0.2415-0.3126,0.3584l-0.0381,0.0458c-0.1347,0.15-0.272,0.3-0.4092,0.4448
				c-0.1424,0.1525-0.2873,0.3025-0.4347,0.4499c-0.1475,0.1474-0.2974,0.2924-0.4499,0.4347
				c-0.1449,0.1373-0.2949,0.2745-0.4448,0.4092l-0.0458,0.0381c-0.117,0.1068-0.2364,0.2084-0.3584,0.3126
				c-0.0406,0.0356-0.0839,0.0686-0.1245,0.1042c-0.15,0.122-0.2974,0.244-0.4499,0.3635
				c-0.1373,0.1068-0.2745,0.2135-0.4143,0.3177c-0.0712,0.0534-0.1424,0.1068-0.2135,0.1576
				c-0.0991,0.0712-0.1983,0.1449-0.2974,0.2135c-0.0509,0.0356-0.1043,0.0737-0.1576,0.1093
				c-0.0991,0.0686-0.1983,0.1373-0.2999,0.2008c-0.1449,0.0966-0.2898,0.1906-0.4347,0.2821
				c-0.0915,0.0585-0.183,0.1144-0.2745,0.1703c-0.1957,0.1195-0.394,0.2364-0.5948,0.3482
				c-0.1245,0.0712-0.2491,0.1398-0.3762,0.2084c-0.0279,0.0153-0.0559,0.0305-0.0838,0.0432
				c-0.1627,0.089-0.3279,0.1728-0.4957,0.2542c-0.1449,0.0737-0.2923,0.1449-0.4423,0.2135
				c-0.2262,0.1068-0.4576,0.211-0.6863,0.3076c-0.1703,0.0737-0.3406,0.1423-0.5135,0.211
				c-0.0356,0.0127-0.0686,0.028-0.1016,0.0381c-0.1627,0.0635-0.3279,0.1271-0.4931,0.1856
				c-0.0509,0.0178-0.1017,0.0381-0.1525,0.0534c-0.1474,0.0508-0.2948,0.1017-0.4423,0.15
				c-0.033,0.0127-0.0661,0.0229-0.0991,0.0305c-0.1449,0.0483-0.2923,0.094-0.4397,0.1373
				c-0.0762,0.0229-0.15,0.0457-0.2262,0.0661c-0.3558,0.1017-0.7168,0.1932-1.0803,0.2745
				c-0.0432,0.0102-0.0839,0.0203-0.1245,0.028c-0.1728,0.0381-0.3457,0.0737-0.5211,0.1093
				c-0.0051,0.0025-0.0101,0.0025-0.0152,0.0025c-1.0244,0.1983-2.0767,0.3228-3.1469,0.3635
				c6.7411-0.3533,12.1146-5.9481,12.1146-12.7756v-7.585c0.0051-0.0991,0.0051-0.1957,0.0076-0.2948
				c0.0051-0.1169,0.0051-0.2364,0.0051-0.3534v-8.0349c0-0.2135,0.0025-0.4271,0.0102-0.638c0-0.0331,0-0.0635,0.0051-0.0941
				c0.0457-1.454,0.244-2.8698,0.5745-4.2322c0.7193-2.974,2.0691-5.6989,3.8993-8.0273l0.0076-0.0076
				c1.0345-1.3141,2.2216-2.5012,3.5358-3.5358c0.3126-0.2466,0.6355-0.4855,0.9634-0.7143
				c1.1032-0.7727,2.2852-1.4412,3.5307-1.9903c1.4184-0.6304,2.9206-1.1057,4.4865-1.4082
				c0.6507-0.1245,1.3116-0.2212,1.9827-0.2873C108.3188,18.261,108.7026,18.2355,109.089,18.2229z"/>
			<g>
				<defs>
					<path id="XMLID_00000009562453187296070040000015473586187619146915_" d="M131.0027,39.2344
						c0,10.2413-7.3181,18.7719-17.0129,20.6478c-1.3015,0.2516-2.6436,0.3838-4.0187,0.3838c-1.3726,0-2.7148-0.1322-4.0162-0.3838
						V44.6309h3.6908v-3.7061h-3.6908v-2.5289c0-2.1276,1.6095-3.9681,3.732-4.1158c1.2211-0.085,2.3369,0.3777,3.1261,1.1669
						c0.2491,0.2491,0.4677,0.5338,0.6431,0.8439h-3.1265v3.7061h3.6603v11.6038c5.2134-1.6929,8.9805-6.5911,8.9805-12.3663
						c0-1.759-0.3482-3.4341-0.9837-4.9643c-1.4438-3.4951-4.3695-6.2251-7.9968-7.3995c-1.2659-0.4143-2.6156-0.6355-4.0187-0.6355
						c-0.1576,0-0.3152,0.0025-0.4703,0.0076c-1.2354,0.0432-2.425,0.2593-3.5459,0.6278c-1.6726,0.5414-3.1926,1.4108-4.489,2.5368
						c-1.52,1.3142-2.73,2.9765-3.5078,4.8626c-0.6152,1.4819-0.9608,3.1011-0.9812,4.8016
						c-0.0025,0.0534-0.0025,0.1093-0.0025,0.1627v3.5434h-0.0127v-3.546c0-0.1169,0-0.2364,0.0051-0.3533
						c0.0025-0.0991,0.0025-0.1957,0.0076-0.2948v-7.585c0-6.8275,5.3736-12.4222,12.1147-12.7756
						c0.2923-0.0153,0.5872-0.0203,0.882-0.0203c0.7626,0,1.515,0.0407,2.2547,0.122c0.2618,0.0254,0.5211,0.0585,0.7804,0.0966
						c0.3304,0.0457,0.6583,0.1017,0.9837,0.1652c5.0482,0.9761,9.4533,3.7594,12.5163,7.6486
						c1.8352,2.3309,3.1875,5.0584,3.9069,8.0349C130.7994,35.8613,131.0027,37.5237,131.0027,39.2344z"/>
				</defs>
				<use xlink:href="#XMLID_00000009562453187296070040000015473586187619146915_"  overflow="visible" fill="#174964"/>
				<clipPath id="XMLID_00000077318417443324922330000004903749777003992483_">
					<use xlink:href="#XMLID_00000009562453187296070040000015473586187619146915_"  overflow="visible"/>
				</clipPath>
				
					<radialGradient id="SVGID_00000163768476838283895180000005780366918175273885_" cx="95.0305" cy="23.6693" r="17.0644" gradientUnits="userSpaceOnUse">
					<stop  offset="0.005" style="stop-color:#231F20"/>
					<stop  offset="1" style="stop-color:#231F20;stop-opacity:0"/>
				</radialGradient>
				
					<circle opacity="0.4" clip-path="url(#XMLID_00000077318417443324922330000004903749777003992483_)" fill="url(#SVGID_00000163768476838283895180000005780366918175273885_)" cx="95.0305" cy="23.6693" r="17.0644"/>
			</g>
		</g>
	</g>
	<g>
		<path fill="#174964" d="M67.0039,109.1249c0.0226,1.0546,0.5233,1.7284,1.8789,1.7284c2.1656,0,2.463-0.5309,2.463-1.7209v-0.1016
			h-1.3631c-1.2464,0-1.597-0.7759-1.5176-1.819h0.0075c0.0826-0.9379,0.8509-1.5478,1.51-1.5478
			c0.7643,0,1.6494,0.7342,1.6947,2.4177v0.0262h0.7382c0.2712,0,0.4931,0.2224,0.4931,0.4936s-0.2219,0.4931-0.4931,0.4931h-0.7382
			v0.0377c0,1.4838-0.3955,2.7076-2.7946,2.7076c-1.4084,0-2.1616-1.1221-2.2064-2.6397h-0.004v-0.0715
			c0-0.0226,0-0.0493,0.004-0.0755c0.0337-0.9907,0.4101-1.8416,0.8846-2.3236l0.2335,0.2335
			C67.3616,107.404,67.0225,108.1835,67.0039,109.1249z M69.9827,108.1835h1.3631c-0.0111-1.352-0.6667-1.8602-1.3631-1.8602
			c-0.6214,0-1.1864,0.4519-1.1864,1.0582v0.0262h-0.0075C68.7811,108.0028,69.0639,108.1835,69.9827,108.1835z M69.64,103.8678
			l0.5535,0.5535l-0.5575,0.5575l-0.5535-0.5575L69.64,103.8678z M70.8224,103.8713l0.5535,0.5539l-0.5575,0.5571l-0.5535-0.5571
			L70.8224,103.8713z"/>
		<path fill="#174964" d="M71.8429,108.6016c0-0.2712,0.2224-0.4936,0.4936-0.4936h0.4443c0.9112,0,1.0733-0.162,1.0733-0.945
			v-1.593h0.3311v1.593c0,1.3329-0.4252,1.9317-1.4044,1.9317h-0.4443C72.0653,109.0947,71.8429,108.8728,71.8429,108.6016z
			 M72.9277,109.7539l0.5349,0.5309l-0.5388,0.5388l-0.5309-0.5388L72.9277,109.7539z M74.0684,109.7574l0.5313,0.5313
			l-0.5349,0.5384l-0.5349-0.5384L74.0684,109.7574z"/>
		<path fill="#174964" d="M75.2411,110.6087h0.7799c1.0768,0,2.0071-0.2938,2.1501-1.514h-1.0844
			c-1.1598,0-1.759-0.5082-1.7737-1.6645h-0.004c0-0.9716,0.6028-1.8869,1.5025-1.8869c0.9192,0,1.7098,0.7306,1.7098,2.4142v0.1505
			h0.4257c0.2712,0,0.4931,0.2224,0.4931,0.4936s-0.2219,0.4931-0.4931,0.4931h-0.4368c-0.1358,1.8678-1.3746,2.2673-2.4892,2.2673
			h-0.7799V110.6087z M77.0867,108.108h1.1034v-0.1505c0-1.2539-0.5198-1.7284-1.3786-1.7284c-0.7492,0-1.1296,0.5042-1.1674,1.0995
			C75.6331,107.9274,76.0849,108.108,77.0867,108.108z"/>
		<path fill="#174964" d="M87.3773,108.6016c0,0.2712-0.2219,0.4931-0.4931,0.4931h-0.2184c-0.4896,0-0.9716-0.2108-1.2091-0.87
			c-0.2335,0.5424-0.6889,0.87-1.2916,0.87h-0.0639c-0.4408,0-0.8212-0.2068-1.3445-0.7532
			c-0.565,0.9641-1.736,1.1376-2.6588,0.0302c-0.2823,0.5349-0.6778,0.7231-1.1487,0.7231h-0.0826
			c-0.2712,0-0.4936-0.2219-0.4936-0.4931s0.2224-0.4936,0.4936-0.4936h0.0826c0.8851,0,1.19-0.3125,1.277-2.0258h0.3311
			c-0.0302,0.6778-0.1052,1.2162-0.2144,1.6379c0.7155,0.712,2.3156,0.5499,2.4102-0.5571l0.0941-1.0773h0.3387l-0.1016,1.1674
			c-0.0111,0.1509-0.0377,0.2938-0.0679,0.4297c0.2677,0.237,0.648,0.4252,1.0848,0.4252h0.0639
			c0.8287,0,1.1336-0.3085,1.1336-0.8056v-1.4275h0.3316v1.2313h0.0035c-0.0151,0.8025,0.2898,1.0018,1.032,1.0018h0.2184
			C87.1553,108.108,87.3773,108.3304,87.3773,108.6016z"/>
		<path fill="#174964" d="M89.8265,108.108c0.2712,0,0.4936,0.2224,0.4936,0.4936s-0.2224,0.4931-0.4936,0.4931
			c-0.8358,0-1.3218-0.3689-1.5251-1.1034c-0.2712,0.791-0.7271,1.1034-1.3556,1.1034h-0.1394
			c-0.2712,0-0.4936-0.2219-0.4936-0.4931s0.2224-0.4936,0.4936-0.4936h0.1394c1.0089,0,1.2801-0.3839,1.3254-2.2784h0.3316
			c-0.0115,0.4519-0.0417,0.8473-0.0866,1.194h0.0076C88.5238,107.8745,88.7985,108.108,89.8265,108.108z M87.9059,104.0524
			l0.5349,0.5344l-0.5384,0.5349l-0.5313-0.5349L87.9059,104.0524z M89.0471,104.056l0.5309,0.5349l-0.5349,0.5349l-0.5344-0.5349
			L89.0471,104.056z"/>
		<path fill="#174964" d="M89.2522,108.6016c0-0.2712,0.2224-0.4936,0.4936-0.4936h0.1052c0.9113,0,1.0884-0.2184,1.0884-1.0884
			v-4.4813h0.3316v4.4813c0,1.3897-0.4483,2.0751-1.4199,2.0751h-0.1052C89.4745,109.0947,89.2522,108.8728,89.2522,108.6016z"/>
		<path fill="#174964" d="M92.91,109.14v-6.6016h0.3311v6.6016H92.91z"/>
		<path fill="#174964" d="M95.9021,108.1759c0.0226,1.0697,0.5238,1.7737,1.8793,1.7737c1.0395,0,2.0111-0.3387,2.0111-1.7284
			v-5.7583h0.3311v5.7583c0,2.2406-1.3631,2.7151-2.3423,2.7151c-1.431,0-2.1616-1.2051-2.2069-2.6814H95.571v-0.0715
			c0-0.0262,0-0.0528,0.0035-0.079c0.0337-0.9907,0.4106-1.838,0.8851-2.3236l0.2335,0.2335
			C96.2599,106.4586,95.9212,107.238,95.9021,108.1759z"/>
		<path fill="#174964" d="M100.873,110.6087h0.7799c1.0768,0,2.0072-0.2938,2.1501-1.514h-1.0844
			c-1.1603,0-1.759-0.5082-1.7737-1.6645h-0.004c0-0.9716,0.6028-1.8869,1.5025-1.8869c0.9192,0,1.7098,0.7306,1.7098,2.4142v0.1505
			h0.4257c0.2712,0,0.4931,0.2224,0.4931,0.4936s-0.2219,0.4931-0.4931,0.4931h-0.4368c-0.1358,1.8678-1.3746,2.2673-2.4892,2.2673
			h-0.7799V110.6087z M102.7186,108.108h1.1034v-0.1505c0-1.2539-0.5198-1.7284-1.3786-1.7284
			c-0.7492,0-1.1296,0.5042-1.1674,1.0995C101.2649,107.9274,101.7168,108.108,102.7186,108.108z"/>
		<path fill="#174964" d="M104.0089,108.6016c0-0.2712,0.2219-0.4936,0.4931-0.4936h0.1806c0.8926-0.0036,1.115-0.3049,1.115-1.0733
			v-4.4964h0.3311v4.3494c0,1.0058,0.3129,1.2202,1.0924,1.2202h0.1016c0.2712,0,0.4931,0.2224,0.4931,0.4936
			s-0.2219,0.4931-0.4931,0.4931h-0.1016c-0.4408,0-0.9792-0.1957-1.2504-0.9752c-0.2148,0.6174-0.6441,0.9716-1.2881,0.9752
			h-0.1806C104.2308,109.0947,104.0089,108.8728,104.0089,108.6016z"/>
		<path fill="#174964" d="M112.0659,107.7693c0.4026,0.2259,0.9339,0.3387,1.5966,0.3387h0.1016
			c0.2712,0,0.4936,0.2224,0.4936,0.4936s-0.2224,0.4931-0.4936,0.4931h-0.1016c-0.8962,0-1.4798-0.1882-2.1616-0.9827
			c-1.6157,0.9148-2.7453,0.9827-3.5775,0.9827h-0.6778c-0.2712,0-0.4936-0.2219-0.4936-0.4931s0.2224-0.4936,0.4936-0.4936h0.6778
			c0.9565,0,2.4856-0.1203,4.2367-1.2202c-0.6702-0.1616-1.1523-0.3879-2.0262-0.87c-0.9374-0.5193-1.6645-0.2521-2.2784,0.1997
			v-0.546c0.7004-0.4634,1.4084-0.6742,2.4293-0.1056c0.9903,0.5464,1.4648,0.7457,2.4626,0.9192l0.004-0.004v0.8136
			C112.5138,107.468,112.2843,107.626,112.0659,107.7693z"/>
		<path fill="#174964" d="M113.192,108.6016c0-0.2712,0.2224-0.4936,0.4936-0.4936h0.1052c0.9113,0,1.0884-0.2184,1.0884-1.0884
			v-4.4813h0.3316v4.4813c0,1.3897-0.4483,2.0751-1.4199,2.0751h-0.1052C113.4144,109.0947,113.192,108.8728,113.192,108.6016z"/>
	</g>
	<g>
		<path fill="#E77654" d="M27.9116,92.1842V80.7149h1.1923v1.9414c1.0744-1.4716,2.6098-1.788,3.4945-1.788h0.2801
			c1.9237,0,3.1523,0.9574,3.7933,2.6825c1.039-2.2401,3.0256-2.6825,4.0636-2.6825h0.289c2.7454,0,4.2356,2.249,4.2356,6.1318
			v5.1842h-1.1914v-5.1842c0-2.3474-0.6055-3.1062-3.0442-3.1062h-0.289c-1.4902,0-3.5575,0.3342-3.5575,3.2605v5.0299h-1.1923
			v-5.1842c0-2.4015-0.5062-3.1062-3.1071-3.1062h-0.2801c-1.5079,0-3.4945,0.3342-3.4945,3.2605v5.0299H27.9116z"/>
		<path fill="#E77654" d="M55.2853,81.1484v6.1407c0,2.1586,1.0478,2.6462,2.3385,2.6462v2.4024
			c-0.984,0-2.3385-0.4876-3.0522-2.2127c-0.5957,1.156-1.6976,1.9777-3.6665,1.9777c-3.233,0-4.0823-2.4653-4.1727-5.1203h-0.0089
			v-0.2261c0-0.0904,0-0.1711,0-0.2615h0.0089c0.1542-3.3686,1.843-5.0849,4.1727-5.0849c1.4627,0,2.5017,0.6055,3.1878,1.5265
			v-1.788H55.2853z M50.9052,88.5089c2.8988,0,3.116-0.3076,3.1249-1.6347c-0.0177-1.8333-0.6143-3.0708-3.1249-3.0708
			c-2.0318,0-2.9352,0.8129-2.9892,2.9892C47.9435,88.2101,48.2227,88.5089,50.9052,88.5089z"/>
		<path fill="#E77654" d="M58.6628,92.1842V81.0943h1.1923v2.1852c1.1285-1.6435,2.772-2.077,3.5583-2.077h0.9751v3.0256h-0.9751
			c-1.3368,0-3.5583,0.5594-3.5583,3.5938v4.3624H58.6628z"/>
		<path fill="#E77654" d="M65.7973,92.1842l0.0089-16.5631h1.1923l-0.0089,8.4349h1.1382l5.9598-5.3464l0.7952,0.8856
			l-4.9758,4.4697c3.7835,0.109,5.1469,2.3846,5.1469,6.2045v1.9148h-1.1914v-1.9148c0-2.4919-0.9308-3.2153-4.2631-3.2153h-2.6098
			v5.1301H65.7973z"/>
		<path fill="#E77654" d="M84.1032,84.6429c0,0.0275,0,0.055,0,0.0816c-0.0541,1.6976-0.8936,3.0256-3.4227,2.9804l-3.3146-0.0541
			c0.344,2.4387,3.92,2.2667,6.4846,1.3546l0.3971,2.5832c-3.3048,1.1737-8.1007,1.3909-8.1007-4.3349v-1.5354
			c0-3.4954,2.0859-4.9945,4.0371-4.9945c2.7995,0,3.8651,1.7065,3.9191,3.8385V84.6429z M80.6991,85.8804
			c1.8244,0.0275,2.1852-0.2979,2.2127-1.2189c-0.0363-1.2101-1.1471-1.5443-2.7277-1.5443c-1.5354,0-2.8447,0.6587-2.8447,2.6009
			v0.1081L80.6991,85.8804z"/>
		<path fill="#E77654" d="M94.0016,82.8283h-4.615v2.1488c0,4.1,0,4.0911,4.4617,4.0911v3.0256c-5.9971,0-5.654-3.2694-5.654-7.1167
			v-2.1488h-2.5105v-1.788h2.5105v-5.4191h1.1923v5.4191h4.615V82.8283z"/>
		<path fill="#E77654" d="M97.1531,76.5608l1.788,1.7969l-1.7969,1.788l-1.788-1.788L97.1531,76.5608z M96.6115,92.1842V81.1936
			h1.1923v10.9906H96.6115z"/>
		<path fill="#E77654" d="M100.3507,92.1842V80.7149h1.1923v1.9051c1.093-1.4893,2.6727-1.8146,3.5583-1.8146h0.2801
			c2.9617,0,4.2356,2.3208,4.2356,6.1318v5.2471h-1.1923v-5.2471c0-2.4201-0.461-3.1062-3.0433-3.1062h-0.2801
			c-1.4902,0-3.5583,0.3333-3.5583,3.2596v5.0937H100.3507z"/>
		<path fill="#E77654" d="M119.036,90.3962v-0.4787c-0.6232,1.2375-1.7694,2.0948-3.7206,2.0948
			c-3.1515,0-4.1275-2.257-4.2268-5.1833h-0.0089v-0.2526c0-0.1002,0-0.1995,0-0.2987h0.0089
			c0.172-3.3775,1.9059-5.0751,4.2268-5.0751c1.8873,0.0089,3.0708,0.9938,3.7206,2.3572v-2.366h1.1923v9.2026
			c0,5.1389-2.4387,7.1796-7.4509,7.1796v-2.3935C117.5555,95.1823,119.036,93.9811,119.036,90.3962z M115.3154,88.4184
			c2.8536,0,3.1701-0.4521,3.1878-1.7074c-0.0266-1.8598-0.6409-3.1151-3.1878-3.1151c-2.0496,0-2.9804,0.8306-3.0433,3.007
			C112.3084,88.1294,112.6329,88.4184,115.3154,88.4184z"/>
		<path fill="#174964" d="M133.4502,89.71v-6.4846h1.1914v3.0797c0,1.9955,0.1179,2.1311,2.4112,2.1311h0.2535
			c0.9929,0,1.7969,0.804,1.7969,1.7969c0,0.9938-0.804,1.7978-1.7969,1.7978h-0.2535c-1.0656,0-1.8598-0.3342-2.4378-0.9937
			c-0.1534,3.9289-1.1648,6.7373-5.482,6.7373v-3.3057C133.1789,94.4687,133.4502,93.5751,133.4502,89.71z"/>
		<path fill="#174964" d="M143.9621,90.2331c0,0.9938-0.8032,1.7978-1.7969,1.7978h-5.0574c-0.9938,0-1.7969-0.804-1.7969-1.7978
			c0-0.9929,0.8031-1.7969,1.7969-1.7969h5.0574C143.159,88.4362,143.9621,89.2402,143.9621,90.2331z"/>
		<path fill="#174964" d="M140.1698,90.2331c0-0.9929,0.8032-1.7969,1.7969-1.7969h1.0026c2.2933,0,2.3474-0.0629,2.3474-1.9503
			v-3.5043h1.1923v3.5043c0,3.7747-1.0469,5.545-3.5397,5.545h-1.0026C140.9729,92.0309,140.1698,91.2268,140.1698,90.2331z
			 M143.7458,77.7345l1.6347,1.6435l1.6436-1.6347l1.788,1.7969l-1.7969,1.7889l-1.6436-1.6347l-1.6347,1.6249l-1.788-1.788
			L143.7458,77.7345z M145.3805,74.8535l1.7969,1.7969l-1.8058,1.7889l-1.7889-1.7889L145.3805,74.8535z"/>
		<path fill="#174964" d="M150.2748,72.3066h1.0744c-0.461-1.3271,0.3519-3.1426,2.5105-2.5469v1.1019
			c-2.1223-0.7039-2.6284,0.9122-1.5265,1.445h2.3935v1.4272h-4.4519V72.3066z M151.8545,92.1842V75.6211h1.1923v16.5631H151.8545z"
			/>
	</g>
</g>
</svg>
